<?xml version="1.0" encoding="utf-8"?>
<!-- Generator: Adobe Illustrator 27.8.0, SVG Export Plug-In . SVG Version: 6.00 Build 0)  -->
<svg version="1.1" id="Layer_1" xmlns="http://www.w3.org/2000/svg" xmlns:xlink="http://www.w3.org/1999/xlink" x="0px" y="0px"
	 viewBox="0 0 1100 200" style="enable-background:new 0 0 1100 200;" xml:space="preserve">
<style type="text/css">
	.st0{fill:#BCB7B7;}
	.st1{fill:#AAA9A9;}
	.st2{fill:url(#SVGID_1_);}
	.st3{filter:url(#Adobe_OpacityMaskFilter);}
	.st4{opacity:0.21;mask:url(#SVGID_00000179633239265083313120000014597782180194310274_);}
	.st5{fill:#FFFFFF;}
	.st6{fill:#F2B630;stroke:#000000;stroke-width:0.25;stroke-miterlimit:10;}
	.st7{fill:#FBB03B;}
</style>
<g>
	<g>
		
			<ellipse transform="matrix(0.2298 -0.9732 0.9732 0.2298 -30.4268 151.3463)" class="st0" cx="80.4" cy="94.9" rx="74.7" ry="74.7"/>
		<path d="M80.4,20.7c40.9,0,74.2,33.3,74.2,74.2s-33.3,74.2-74.2,74.2S6.2,135.8,6.2,94.9S39.5,20.7,80.4,20.7 M80.4,19.7
			c-41.5,0-75.2,33.7-75.2,75.2s33.7,75.2,75.2,75.2s75.2-33.7,75.2-75.2S122,19.7,80.4,19.7L80.4,19.7z"/>
	</g>
	<g>
		
			<ellipse transform="matrix(0.1602 -0.9871 0.9871 0.1602 -26.1462 159.0608)" class="st1" cx="80.4" cy="94.9" rx="64.6" ry="64.6"/>
		<path d="M80.4,30.5c35.5,0,64.4,28.9,64.4,64.4s-28.9,64.4-64.4,64.4S16,130.4,16,94.9S44.9,30.5,80.4,30.5 M80.4,30
			c-35.8,0-64.9,29-64.9,64.9s29,64.9,64.9,64.9s64.9-29,64.9-64.9S116.2,30,80.4,30L80.4,30z"/>
	</g>
	<g id="eventHorizon">
		<g>
			<radialGradient id="SVGID_1_" cx="80.4036" cy="95.5945" r="56.2717" gradientUnits="userSpaceOnUse">
				<stop  offset="0.1537" style="stop-color:#B3D3F2"/>
				<stop  offset="1" style="stop-color:#0461AD"/>
			</radialGradient>
			<circle class="st2" cx="80.4" cy="95.6" r="56.3"/>
			<path d="M80.4,39.8c30.8,0,55.8,25,55.8,55.8s-25,55.8-55.8,55.8s-55.8-25-55.8-55.8S49.7,39.8,80.4,39.8 M80.4,38.8
				c-31.4,0-56.8,25.4-56.8,56.8s25.4,56.8,56.8,56.8s56.8-25.4,56.8-56.8S111.8,38.8,80.4,38.8L80.4,38.8z"/>
		</g>
		<defs>
			<filter id="Adobe_OpacityMaskFilter" filterUnits="userSpaceOnUse" x="23.6" y="38.8" width="113.5" height="113.5">
				<feFlood  style="flood-color:white;flood-opacity:1" result="back"/>
				<feBlend  in="SourceGraphic" in2="back" mode="normal"/>
			</filter>
		</defs>
		
			<mask maskUnits="userSpaceOnUse" x="23.6" y="38.8" width="113.5" height="113.5" id="SVGID_00000147931613005567747710000006019307864810757304_">
			<g class="st3">
				<image style="overflow:visible;" width="119" height="119" xlink:href="B66BEE8A.jpg"  transform="matrix(1 0 0 1 21 36)">
				</image>
			</g>
		</mask>
		<g style="opacity:0.21;mask:url(#SVGID_00000147931613005567747710000006019307864810757304_);">
			
				<ellipse transform="matrix(0.2298 -0.9732 0.9732 0.2298 -31.1064 151.8842)" class="st5" cx="80.4" cy="95.6" rx="56.3" ry="56.3"/>
			<path class="st5" d="M80.4,39.8c30.8,0,55.8,25,55.8,55.8s-25,55.8-55.8,55.8s-55.8-25-55.8-55.8S49.7,39.8,80.4,39.8 M80.4,38.8
				c-31.4,0-56.8,25.4-56.8,56.8s25.4,56.8,56.8,56.8s56.8-25.4,56.8-56.8S111.8,38.8,80.4,38.8L80.4,38.8z"/>
		</g>
	</g>
	<polygon class="st6" points="74.3,20.8 86.5,20.8 80.4,30.7 	"/>
	<polygon class="st6" points="128.4,38.5 137.2,46.9 126,49.9 	"/>
	<polygon class="st6" points="154.4,90.1 154.4,102.3 144.5,96.2 	"/>
	<polygon class="st6" points="136.3,143.7 127.7,152.2 125,141 	"/>
	<polygon class="st6" points="85.8,168.9 73.7,168.9 79.8,159 	"/>
	<polygon class="st6" points="32,150.9 23.4,142.4 34.7,139.7 	"/>
	<polygon class="st6" points="6.5,102.3 6.5,90.1 16.3,96.2 	"/>
	<polygon class="st6" points="23.1,47.5 31.7,38.9 34.4,50.2 	"/>
</g>
<g>
	
		<image style="overflow:visible;opacity:0.62;" width="911" height="95" xlink:href="B66BEE8E.png"  transform="matrix(1 0 0 1 175 62)">
	</image>
	<g>
		
			<image style="overflow:visible;opacity:0.62;" width="883" height="67" xlink:href="B66BEE89.png"  transform="matrix(1 0 0 1 183 69)">
		</image>
		<g>
			<g>
				<path class="st7" d="M224.6,114.9l-7,4h-22.1l-7-4v-6h8v2h20v-12h-21l-7-4v-20l7-4h22.1l7,4v6h-8v-2h-20v12h21l7,4V114.9z"/>
				<path class="st7" d="M264.6,78.9h-12v40h-8v-40h-12v-8h32V78.9z"/>
				<path class="st7" d="M300.3,118.9l-9.8-33.2l-9.7,33.2h-8.3l14-48h8l14.1,48H300.3z M280.6,98.9h20v8h-20V98.9z"/>
				<path class="st7" d="M352.6,118.9h-8.5l-7-20.2h-12.6v20.2h-8v-48h29l7,4v19.8l-7,4L352.6,118.9z M344.6,90.7V78.9h-20v11.8
					H344.6z"/>
				<path class="st7" d="M400.6,102.9h-4v12l-7,4h-22.1l-7-4v-40l7-4h22.1l7,4v6h-8v-2h-20v32h20v-8h-4v-8h16V102.9z"/>
				<path class="st7" d="M436.3,118.9l-9.8-33.2l-9.7,33.2h-8.3l14-48h8l14.1,48H436.3z M416.6,98.9h20v8h-20V98.9z"/>
				<path class="st7" d="M484.6,78.9h-12v40h-8v-40h-12v-8h32V78.9z"/>
				<path class="st7" d="M528.6,78.9h-28v12h12v8h-12v20h-8v-48h36V78.9z M528.6,118.9h-36v-48h8v20h12v8h-12v12h28V118.9z"/>
				<path class="st7" d="M608.6,78.9h-28v12h12v8h-12v20h-8v-48h36V78.9z"/>
				<path class="st7" d="M644.3,118.9l-9.8-33.2l-9.7,33.2h-8.3l14-48h8l14.1,48H644.3z M624.5,98.9h20v8h-20V98.9z"/>
				<path class="st7" d="M696.6,118.9h-8l-20-32.6v32.6h-8v-48h8l20,32.7V70.9h8V118.9z"/>
				<path class="st7" d="M776.6,118.9h-8l-20-32.6v32.6h-8v-48h8l20,32.7V70.9h8V118.9z"/>
				<path class="st7" d="M820.5,78.9h-28v12h12v8h-12v20h-8v-48h36V78.9z M820.5,118.9h-36v-48h8v20h12v8h-12v12h28V118.9z"/>
				<path class="st7" d="M860.6,78.9h-12v40h-8v-40h-12v-8h32V78.9z"/>
				<path class="st7" d="M920.6,70.9l-7.9,48h-10.5l-7.6-39.7l-7.6,39.7h-10.5l-7.9-48h8.1l5.2,31.7l6.1-31.7h13.1l6.1,31.8
					l5.2-31.8H920.6z"/>
				<path class="st7" d="M935.5,118.9l-7-4v-40l7-4h22.1l7,4v40l-6.9,4H935.5z M956.5,110.9v-32h-20v32H956.5z M945.9,118.9
					L945.9,118.9l11.8-0.1l0.1,0.1H945.9z"/>
				<path class="st7" d="M1008.6,118.9h-8.5l-7-20.2h-12.6v20.2h-8v-48h29l7,4v19.8l-7,4L1008.6,118.9z M1000.6,90.7V78.9h-20v11.8
					H1000.6z"/>
				<path class="st7" d="M1052.6,70.9L1038,87.5l14.6,31.3h-8.7l-11.6-24.7l-7.7,8.9v15.8h-8v-48h8v20l17.4-20H1052.6z"/>
			</g>
		</g>
	</g>
</g>
</svg>
