<?xml version="1.0" encoding="UTF-8"?>
<svg id="Layer_2" data-name="Layer 2" xmlns="http://www.w3.org/2000/svg" viewBox="0 0 26.07 173.19">
  <g id="Layer_1-2" data-name="Layer 1">
    <path d="m4.92,1.38s6.9,26.6,0,170.44c0,0,4.93,1.97,18.72,0,0,0,5.91-140.39-2.96-170.44,0,0-5.42-1.97-15.76,0Z" fill="#c4c4c4" stroke="#000" stroke-miterlimit="10"/>
    <path d="m4.92,171.82s-1.49,2.05-3.27-30.84S-.49-3.34,4.92,1.38s0,170.44,0,170.44Z" fill="#c4c4c4" stroke="#000" stroke-miterlimit="10"/>
    <path d="m6.07,145.85s-2.44,15.37-3.12-2.98S1.39,6.76,3.91,13.93s3.29,16.16,3.29,16.16l-1.13,115.76Z" fill="#15bdea" stroke="#000" stroke-miterlimit="10"/>
    <path d="m5.43,3.76l-.72,10.83-1.49-10.24s1.28-5.46,2.2-.59Z" fill="#f4af25" stroke="#000" stroke-miterlimit="10"/>
    <path d="m7.96,68.6s6.96-.83,17.38,0l.16,10.5s-5.01.5-17.54,0v-10.5Z" fill="#f4af25" stroke="#000" stroke-miterlimit="10"/>
    <path d="m7.32,23.93s8.78,1.03,16.62,0l-1-10.31s-8.2-1.91-16.12,0l.5,10.31Z" fill="#f4af25" stroke="#000" stroke-miterlimit="10"/>
    <path d="m6.57,127.46s12.05-3.17,18.25.83l-.53,10s-6.24,2-17.84,0l.12-10.83Z" fill="#f4af25" stroke="#000" stroke-miterlimit="10"/>
    <path d="m4.71,169.09l.21-18.24s-.69,1.95-1.32-.3c0,0,.28,14.04.66,16.54s.45,2,.45,2Z" fill="#f4af25" stroke="#000" stroke-miterlimit="10" stroke-width=".25"/>
  </g>
</svg>